<?xml version="1.0" standalone="no"?><!DOCTYPE svg PUBLIC "-//W3C//DTD SVG 1.1//EN" "http://www.w3.org/Graphics/SVG/1.1/DTD/svg11.dtd"><svg t="1556270430040" class="icon" style="" viewBox="0 0 1024 1024" version="1.1" xmlns="http://www.w3.org/2000/svg" p-id="5896" xmlns:xlink="http://www.w3.org/1999/xlink" width="200" height="200"><defs><style type="text/css"></style></defs><path d="M552.2 0L0.2 552l471.9 472 552-552.1V0H552.2z m439.2 458.4L472.1 977.6 46.7 552 565.8 32.8h425.6v425.6z" fill="#333234" p-id="5897"></path><path d="M232.1 593.7l26.5-23.1 168.6 193.3-26.6 23.1-168.5-193.3zM448.5 816.7c0 14.7 11.9 26.7 26.7 26.7 14.7 0 26.7-11.9 26.7-26.7 0-14.7-11.9-26.7-26.7-26.7-14.8 0-26.7 11.9-26.7 26.7zM806.1 287.5c45.2 0 82-36.8 82-82s-36.8-82-82-82-82 36.8-82 82 36.7 82 82 82z m0-131.3c27.2 0 49.2 22.1 49.2 49.2s-22.1 49.2-49.2 49.2c-27.2 0-49.2-22.1-49.2-49.2s22.1-49.2 49.2-49.2z" fill="#333234" p-id="5898"></path></svg>