<?xml version="1.0" standalone="no"?><!DOCTYPE svg PUBLIC "-//W3C//DTD SVG 1.1//EN" "http://www.w3.org/Graphics/SVG/1.1/DTD/svg11.dtd"><svg t="1558428017820" class="icon" style="" viewBox="0 0 1024 1024" version="1.1" xmlns="http://www.w3.org/2000/svg" p-id="2220" xmlns:xlink="http://www.w3.org/1999/xlink" width="200" height="200"><defs><style type="text/css"></style></defs><path d="M1022.32236 398.1c-7.9-39.5-47.8-88.8-191.4-101.4C761.52236 192.1 642.92236 123 508.42236 123c-189.2 0-346.9 136.8-380.3 316.8C33.22236 491.1-9.37764 545.3 1.72236 601.1c10.6 53.4 68.6 87 169.1 99.2C237.22236 818.7 363.52236 899 508.42236 899c196.4 0 358.7-147.4 383.5-337.6 84.8-45.1 142.9-100.3 130.4-163.3zM508.42236 162.7C700.12236 162.7 856.02236 318.9 856.02236 511c0 8.9-0.7 17.5-1.3 26.2-79.4 39.3-189.5 75.4-315.3 100.5-95.2 19-192.5 29.5-274 29.5-24.5 0-47.3-1-68.4-2.8-22.8-46.4-36-98.3-36-153.4-0.1-192.1 155.8-348.3 347.4-348.3zM39.32236 593.6c-7.8-39.3 35-77.1 83.2-106.4-0.5 7.9-1.2 15.7-1.2 23.8 0 52.2 10.5 101.9 29.2 147.4-65.2-11.6-105.1-34-111.2-64.8z m469.1 265.6c-120.3 0-226.4-61.6-288.8-154.8 14.6 0.7 29.7 1.2 45.7 1.2 85.2 0 182.5-10.5 281.5-30.2 89.3-17.8 206-49.5 301.7-92.7-33.1 157.7-173 276.5-340.1 276.5z m387-344c0-1.4 0.2-2.8 0.2-4.2 0-62.3-15.1-121-41.2-173.2 77.7 10.3 123.6 34 130.3 67.8 6.7 33.9-27 72.5-89.3 109.6z" fill="#333333" p-id="2221"></path><path d="M504.52236 285.4v-39.7c-37.3 0-73.3 7.9-106.9 23.5l16.7 36c28.3-13.2 58.6-19.8 90.2-19.8zM694.82236 379.2l31.9-23.6C688.62236 304 633.82236 266.5 572.32236 250L562.02236 288.4c52.9 14.2 100 46.4 132.8 90.8z" fill="#333333" p-id="2222"></path></svg>