<?xml version="1.0" standalone="no"?><!DOCTYPE svg PUBLIC "-//W3C//DTD SVG 1.1//EN" "http://www.w3.org/Graphics/SVG/1.1/DTD/svg11.dtd"><svg t="1558423177829" class="icon" style="" viewBox="0 0 1024 1024" version="1.1" xmlns="http://www.w3.org/2000/svg" p-id="1994" xmlns:xlink="http://www.w3.org/1999/xlink" width="200" height="200"><defs><style type="text/css"></style></defs><path d="M837.8 64l-605.3 7.3 0.5 41.8 576.7-7 9.4 776.8 28.5-0.3z" fill="#1D1D1B" p-id="1995"></path><path d="M176.4 141.4l9.9 818.6 605.3-7.3-9.9-818.6-605.3 7.3z m45.7 62.8l500.2-3.9 1.5 194.4-500.2 3.9-1.5-194.4z m8.1 266l497.9 4.2-0.4 48.5-497.9-4.2 0.4-48.5z m6.5 110.6l497.9 4-0.4 48.5-497.9-4 0.4-48.5z m7 108.6l497.9 0.8-0.1 48.5-497.9-0.8 0.1-48.5z m7.1 156v-48.5l497.9-0.4V845l-497.9 0.4z" fill="#1D1D1B" p-id="1996"></path><path d="M374.7 259.2c7.1 0.2 16.1 2.5 27 7.1l8.3-20.6c-10.2-5-21.7-7.7-34.6-8-19-0.4-33.6 4.7-43.9 15.5-10.3 10.8-15.7 26.4-16.2 47-0.5 20.1 3.9 35.7 13.3 46.7 9.3 11 23.2 16.7 41.7 17.2 7.5 0.2 13.9-0.2 19.2-1.3 5.3-1.1 10.3-2.9 15-5.5l0.5-22.6c-10.4 5.5-21.4 8.1-33 7.8-10.2-0.2-17.8-3.9-22.9-10.9-5.1-7-7.5-17.4-7.1-31.1 0.7-28 11.6-41.8 32.7-41.3zM502.9 303.9c-4.5-3.4-11.7-7.1-21.7-11.2-11.9-4.9-19.6-8.8-23.1-11.5-3.5-2.7-5.2-6-5.1-9.8 0.2-7.8 7.1-11.5 20.8-11.2 9 0.2 20 3.2 33 9l8.9-19.3c-12.7-6.1-26.1-9.4-40.5-9.7-14.5-0.3-26 2.3-34.6 7.8-8.6 5.5-13 13.6-13.2 24-0.2 8.7 2.1 15.8 6.9 21.4 4.8 5.6 14.2 11.3 28.1 17 7.1 3 12.7 5.6 16.7 7.9 4 2.3 6.8 4.5 8.6 6.6 1.7 2.1 2.5 4.7 2.4 7.8-0.2 9.7-8.3 14.3-24.3 13.9-12.4-0.3-25.6-3.9-39.8-10.9l-0.5 22.4c9.7 5.2 22.7 8 39 8.4 16.2 0.4 28.7-2.5 37.5-8.6s13.4-15.2 13.7-27.1c0.1-5.8-0.8-10.9-2.9-15.2-2.1-4.6-5.4-8.4-9.9-11.7zM612.9 306.6c-4.5-3.3-11.7-7.1-21.7-11.2-11.9-4.9-19.6-8.8-23.1-11.5-3.5-2.7-5.2-6-5.1-9.8 0.2-7.8 7.1-11.5 20.8-11.2 9 0.2 20 3.2 33 9l8.9-19.3c-12.7-6.1-26.2-9.4-40.5-9.7-14.5-0.4-26 2.2-34.6 7.8-8.6 5.5-13 13.6-13.2 24-0.2 8.7 2.1 15.8 6.9 21.4 4.8 5.5 14.2 11.2 28.1 17 7.2 3 12.7 5.6 16.7 7.9 4 2.3 6.8 4.5 8.6 6.6 1.7 2.1 2.5 4.7 2.5 7.8-0.2 9.6-8.3 14.2-24.3 13.9-12.4-0.3-25.6-3.9-39.8-10.9l-0.5 22.4c9.7 5.2 22.7 8 39 8.4 16.2 0.4 28.7-2.5 37.5-8.6s13.4-15.2 13.7-27.1c0.1-5.8-0.8-10.9-2.9-15.2-2.2-4.6-5.5-8.4-10-11.7z" fill="#1D1D1B" p-id="1997"></path></svg>