<?xml version="1.0" standalone="no"?><!DOCTYPE svg PUBLIC "-//W3C//DTD SVG 1.1//EN" "http://www.w3.org/Graphics/SVG/1.1/DTD/svg11.dtd"><svg t="1556270567971" class="icon" style="" viewBox="0 0 1024 1024" version="1.1" xmlns="http://www.w3.org/2000/svg" p-id="3005" xmlns:xlink="http://www.w3.org/1999/xlink" width="200" height="200"><defs><style type="text/css"></style></defs><path d="M703.81136 288a281.92 281.92 0 0 1-66.24 157.76C637.57136 288 511.81136 160 511.81136 160a391.04 391.04 0 0 1-64 190.4A693.76 693.76 0 0 0 191.81136 0c96 350.4-32 477.76-32 732.48C159.81136 881.92 287.81136 1024 479.81136 1024c288 0 342.08-105.28 371.84-224C892.29136 637.12 831.81136 448 703.81136 288z m85.76 496.64C767.81136 866.88 745.73136 960 479.81136 960c-160 0-256-115.52-256-227.52a1010.88 1010.88 0 0 1 32-230.4 1019.84 1019.84 0 0 0 32-320 920.32 920.32 0 0 1 133.76 317.44 1500.8 1500.8 0 0 0 116.48-188.8C558.53136 352 575.81136 480 575.81136 608a765.76 765.76 0 0 0 148.8-175.36c67.2 120.32 91.2 246.4 64.96 352z" fill="#343231" p-id="3006"></path><path d="M717.57136 537.28l-27.2 32a416 416 0 0 1-150.72 119.36 402.88 402.88 0 0 1-23.36-138.24v-55.04l-48.32 76.16c-16.32 25.92-30.08 47.36-50.24 76.16-32-69.12-52.48-120.32-68.8-166.72l-15.36-43.2-16.64 48.32a693.44 693.44 0 0 0-41.28 270.08 16 16 0 0 0 32 0 691.2 691.2 0 0 1 26.88-222.08C351.81136 576 372.29136 624.32 399.81136 685.76l11.2 24.96 16.32-22.08c26.56-36.16 42.24-60.48 59.84-87.68a485.12 485.12 0 0 0 28.16 114.88l5.76 16.96 16.32-7.68a455.36 455.36 0 0 0 160-114.56 398.72 398.72 0 0 1-21.44 171.2 16 16 0 1 0 29.76 11.84 436.16 436.16 0 0 0 18.88-224z" fill="#343231" p-id="3007"></path></svg>