<?xml version="1.0" standalone="no"?><!DOCTYPE svg PUBLIC "-//W3C//DTD SVG 1.1//EN" "http://www.w3.org/Graphics/SVG/1.1/DTD/svg11.dtd"><svg t="1557479981147" class="icon" style="" viewBox="0 0 1024 1024" version="1.1" xmlns="http://www.w3.org/2000/svg" p-id="6853" xmlns:xlink="http://www.w3.org/1999/xlink" width="200" height="200"><defs><style type="text/css"></style></defs><path d="M509.866667 992C245.333333 992 32 776.533333 32 512s213.333333-480 477.866667-480S987.733333 247.466667 987.733333 512s-213.333333 480-477.866666 480z m0-896C281.6 96 96 281.6 96 512s185.6 416 413.866667 416S923.733333 742.4 923.733333 512 738.133333 96 509.866667 96z" fill="#212121" p-id="6854"></path><path d="M573.866667 736c-8.533333 0-17.066667-2.133333-23.466667-8.533333l-192-192c-6.4-6.4-8.533333-14.933333-8.533333-23.466667s4.266667-17.066667 8.533333-23.466667l192-192c12.8-12.8 32-12.8 44.8 0s12.8 32 0 44.8L426.666667 512l168.533333 168.533333c12.8 12.8 12.8 32 0 44.8-4.266667 8.533333-12.8 10.666667-21.333333 10.666667z" fill="#212121" p-id="6855"></path></svg>