<?xml version="1.0" standalone="no"?><!DOCTYPE svg PUBLIC "-//W3C//DTD SVG 1.1//EN" "http://www.w3.org/Graphics/SVG/1.1/DTD/svg11.dtd"><svg t="1556282550647" class="icon" style="" viewBox="0 0 1024 1024" version="1.1" xmlns="http://www.w3.org/2000/svg" p-id="1659" xmlns:xlink="http://www.w3.org/1999/xlink" width="200" height="200"><defs><style type="text/css"></style></defs><path d="M758.621043 497.886201c9.350798 1.546124 20.076129 5.051996 32.16335 10.517616 12.099864 5.476457 24.969178 14.075868 38.615166 25.781977 13.662244 11.720558 24.783137 25.18773 33.382548 40.387067 8.592186 15.21198 12.677854 34.923253 12.284098 59.133819-0.395562 24.19431-7.235715 49.963643-20.482528 77.293549-21.86248 46.828046-59.513125 87.030879-112.98264 120.604886-53.453259 33.561364-111.194483 57.188521-173.227284 70.852571-62.011127 13.653213-121.910783 18.148893-179.671875 13.438273-35.102069-2.339054-68.468361-6.440979-100.071783-12.287711-31.621484-5.834089-64.588602-15.199337-98.923027-28.09755-34.329007-12.883763-64.17859-28.496724-89.55778-46.844302-25.36474-18.320484-47.214577-42.332366-65.540479-72.003132C16.2811 726.994303 4.759226 693.418489 0.066668 655.953885v-24.579034c-0.767643-17.155472 5.093539-42.529243 17.578127-76.088802 12.482783-33.574007 31.590778-67.149821 57.34205-100.707572 4.298802-6.245907 8.583155-12.488201 12.880151-18.732302 9.374279-11.720558 22.640961-26.934345 39.816301-45.67929 17.182566-18.732302 36.104521-38.044401 56.78754-57.952552 20.670376-19.909957 45.057951-39.025178 73.148276-57.360111 28.084906-18.334934 55.790507-32.186831 83.102351-41.550273 22.628317-7.819124 42.915774-12.500845 60.873209-14.048775 17.946597-1.54793 32.586005-0.384725 43.894745 3.518516 11.305128 3.90324 20.683019 8.96788 28.090325 15.21198 7.412725 6.244101 13.073416 14.431694 16.96582 24.577228 3.899628 10.132891 6.439172 19.313905 7.602377 27.503304 1.179461 8.189399 1.773708 16.971238 1.773708 26.338292-0.805574 3.888791-1.985035 9.15392-3.534772 15.808033-1.546124 6.639663-2.508839 11.534517-2.920656 14.641215-0.395562 3.137403-0.778481 6.82751-1.152368 11.126312-0.382919 4.300609 0.211328 7.038837 1.759257 8.214686 1.549736 1.166818 3.693719 2.35531 6.444591 3.518516 2.750872 1.177655 6.6505 1.374533 11.716946 0.596052 5.075477-0.767643 11.516455-2.34086 19.333773-4.681721 5.066446-2.342667 10.129279-4.697977 15.206562-7.038837 10.129279-3.901434 23.013042-8.005165 38.613359-12.302161 15.605736-4.286159 32.179606-7.804674 49.741478-10.530259a159.615614 159.615614 0 0 1 52.660329 0.606889c17.561872 3.122953 31.803912 10.145535 42.740571 21.085806 6.215201 6.271194 11.097412 13.306419 14.643021 21.100256 3.541996 7.790225 5.897307 15.015102 7.047868 21.656572 1.139724 6.652306 1.336602 13.676694 0.596053 21.098449-0.755 7.409112-1.717715 13.653213-2.92427 18.732302-1.202942 5.066446-2.960394 10.132891-5.275967 15.21198-2.331829 5.053802-3.888791 8.388083-4.679914 9.963107-0.80738 1.571411-1.603923 2.736422-2.371566 3.516709-1.175849 1.945298-2.339054 3.90324-3.518516 5.835895-2.328217 3.926721-1.730358 8.22733 1.759258 12.898214 3.493228 4.669077 11.097412 8.187593 22.812552 10.528453l0.001806-0.104761zM401.674146 862.081456c82.694146-3.888791 153.897123-28.281784 213.60532-73.153694 59.695553-44.884554 89.55778-95.429799 89.55778-151.639349 0-55.40217-29.264368-99.119905-87.800328-131.136952-58.530542-32.011628-130.313316-46.060403-215.362772-42.144518-85.049456 3.930334-156.844873 25.980661-215.375415 66.169043-58.53596 40.188383-87.785878 87.997206-87.785878 143.424663 0 56.1951 29.452215 102.642033 88.353031 139.338994 58.889979 36.682511 130.502969 53.08479 214.770332 49.196a0.13366 0.13366 0 0 0 0.03793-0.054187z" fill="#231815" p-id="1660"></path><path d="M367.661228 537.74224c32.018852-3.90324 60.304249-1.360083 84.876059 7.607796s43.100009 21.654765 55.582791 38.071494c12.484589 16.404085 21.266428 34.551172 26.331067 54.435842 5.066446 19.868414 5.855763 39.579687 2.367954 59.117563-3.505872 19.525232-10.712688 35.927511-21.66199 49.196-27.311844 35.107488-63.203231 57.558796-107.675967 67.321411-44.474542 9.762616-92.467599 2.16927-143.977366-22.821582-8.597605-4.696171-16.017554-10.541097-22.256236-17.567291-6.227845-7.022581-10.725331-13.452723-13.452723-19.326548-2.720167-5.872019-4.862343-12.329254-6.428335-19.339192-1.571411-7.026194-2.366147-11.695271-2.366147-14.048775v-4.683527c-0.384725-3.122953-0.778481-6.244101-1.163205-9.367054-0.012644-5.474651 0.354019-13.069804 1.163205-22.817971 0.805574-9.737329 2.566638-20.464467 5.275967-32.18683 2.727391-11.706108 7.60599-23.612707 14.653858-35.703541 7.035225-12.076383 15.631023-23.401379 25.763915-33.944282 10.141922-10.532066 24.185279-19.908151 42.144519-28.099356 17.94479-8.200236 38.234054-13.467172 60.858758-15.806227-0.009031-0.010837-0.025287-0.023481-0.036124-0.03793z m-42.070464 221.288977c10.145535-0.780287 19.508976-3.901434 28.101162-9.367054 8.586767-5.478264 15.425114-12.117926 20.487948-19.908151 5.064639-7.792031 7.602378-15.98143 7.602377-24.566391-0.023481-5.476457-0.803768-10.555547-2.349891-15.21198a31.099487 31.099487 0 0 0-7.60599-12.302161c-3.518516-3.518516-7.616827-6.641469-12.284099-9.367054-4.669077-2.725585-10.329769-4.669077-16.969432-5.848539-6.6505-1.165012-13.474397-1.360083-20.498784-0.579796-10.141922 0.765837-19.294036 4.085668-27.494273 9.9613-8.185787 5.859376-14.626765 12.898213-19.319323 21.085806-4.697977 8.202043-7.046062 16.58832-7.046062 25.175087a33.767273 33.767273 0 0 0 1.770095 11.137149c1.192105 3.545609 2.750872 6.666756 4.68172 9.352605a114.308405 114.308405 0 0 0 6.439173 8.214686c2.366147 2.777966 5.290417 4.921948 8.771002 6.440979a128.651594 128.651594 0 0 0 10.512197 4.087474c3.543803 1.192105 7.459686 1.972392 11.729589 2.357117 4.273515 0.381112 8.742102 0.171591 13.43466-0.597859 0.01445-0.023481 0.027093-0.050574 0.037931-0.063218z m99.45225-84.200532c3.122953-3.121147 5.660692-6.455428 7.602378-9.961301 1.947105-3.531159 3.122953-7.235715 3.518515-11.124505 0.395562-3.90324-0.567153-7.421756-2.920657-10.542903-2.339054-5.438527-6.440979-8.557868-12.285905-9.367055-5.846732-0.79293-11.892149 1.150562-18.119993 5.846733l-3.529353 4.683527a7.497617 7.497617 0 0 0-3.516709 3.516709c-0.794737 1.56238-1.57683 3.135597-2.366148 4.696171-0.767643 1.53348-1.152368 3.491422-1.152368 5.834089v4.683527c0 1.560574 0.384725 3.106697 1.152368 4.694364 0.791124 1.560574 1.571411 3.121147 2.366148 4.683527 2.337248 4.696171 6.439172 7.223072 12.284098 7.595153 5.848539 0.382919 11.50923-1.378145 16.969432-5.279579l-0.001806 0.041543zM840.576445 430.06266c4.692558 0 8.993167-1.163205 12.880151-3.518515 3.888791-2.353504 7.022581-5.26513 9.365248-8.756552 2.35531-3.505872 3.914078-7.224878 4.681721-11.126312 0.778481-0.782093 1.163205-1.957942 1.163205-3.534772 9.361635-88.999658-21.846224-139.745394-93.645254-152.220951-21.082194-3.90324-40.587558-4.286159-58.532348-1.165012-5.460201 0-10.158178 1.361889-14.046969 4.087475-3.897822 2.712942-7.219459 6.218814-9.970332 10.53026-2.738229 4.287965-4.101924 8.771002-4.085668 13.454528 0 7.804674 2.736422 14.431694 8.211074 19.881058 5.463814 5.438527 12.099864 8.174949 19.891895 8.203849 60.873208-14.048775 93.641642 5.463814 98.312525 58.563053 1.573217 13.266682 0.794737 25.754883-2.35531 37.462798 0 7.817318 2.738229 14.458787 8.200236 19.895508 5.476457 5.45117 12.099864 8.189399 19.891895 8.214686 0.010837 0.001806 0.027093 0.01445 0.037931 0.028899z" fill="#231815" p-id="1661"></path><path d="M820.686356 99.903805c-34.343457-7.806481-80.380379-6.245907-138.146889 4.681721-0.762225 0-1.546124 0.397368-2.349892 1.163205-0.384725 0.794737-0.765837 1.587667-1.152368 2.36976a353.115905 353.115905 0 0 1-1.163205 1.163205c-8.597605 2.34086-15.621992 7.223072-21.082194 14.644828-5.476457 7.41995-8.211074 15.423308-8.211073 24.008269 0 11.720558 3.914078 21.470531 11.716945 29.260755 7.813705 7.804674 17.177147 11.707915 28.090325 11.733202h3.529353c0.767643 0 2.526901-0.395562 5.275967-1.165012a61.87566 61.87566 0 0 1 8.765583-1.759258c3.099473-0.397368 6.415692-1.192105 9.961301-2.35531 3.543803-1.177655 6.66495-2.353504 9.363441-3.531159 2.698492-1.165012 7.961815-1.759258 15.802614-1.759258 7.842605 0 17.404731 0.594246 28.699021 1.759258 11.279841 1.177655 23.780685 4.100118 37.455573 8.769196 13.687531 4.669077 27.346163 10.530259 40.96867 17.56729 13.635151 7.049675 27.295589 16.799647 40.981314 29.262562 13.674888 12.461108 25.590517 26.905445 35.698121 43.322173 20.298294 46.049565 24.197922 90.547588 11.727783 133.48865 0 0.765837-0.211328 1.54793-0.60689 2.35531-0.397368 0.805574-0.978971 2.750872-1.761064 5.848539a266.706366 266.706366 0 0 1-2.35531 8.769195c-0.805574 2.750872-1.584054 6.244101-2.353504 10.53026-0.778481 4.260872-1.165012 7.978071-1.165011 11.126311 0 7.009938 1.945298 12.87112 5.832282 17.567291 3.901434 4.696171 8.781839 8.016002 14.655665 9.9613 5.872019 1.957942 12.695917 2.924269 20.482529 2.92427 21.860674 0 34.729988-13.270294 38.618778-39.830752 9.363442-30.43841 14.637603-59.516738 15.802614-87.215113 1.174043-27.700182-0.767643-52.094982-5.844926-73.166338-5.064639-21.087612-12.654374-40.786242-22.801715-59.133819-10.141922-18.334934-21.848031-33.946089-35.138193-46.829852-13.279325-12.88557-28.117418-24.593484-44.487185-35.136387-16.386023-10.542903-32.190443-18.930986-47.425905-25.187731-15.235461-6.244101-31.039881-11.296097-47.424098-15.21198 0.016256 0.005419 0.030706 0.005419 0.041543 0.005419z" fill="#231815" p-id="1662"></path></svg>